# xmcd
#
# Track frame offsets: 
#        150
#        17845
#        41162
#        64977
#        87655
#        115060
#        141790
#        162305
#        180872
#        205852
#        227105
#        246532
#        264850
#        295597
#
# Disc length: 4179 seconds
#
# Revision: 0
# Processed by: cddbd v1.5.2PL0 Copyright (c) Steve Scherf et al.
# Submitted via: ExactAudioCopy v0.95b4
#
DISCID=c610510e
DTITLE=The Craig Allen Blues Band - Live at the Iron Horse
DYEAR=2006
DGENRE=Blues
TTITLE0=Grab the Rafters
TTITLE1=One Step Ahead
TTITLE2=Can't See the Streets
TTITLE3=Lonely at the Bottom
TTITLE4=Standing in the Rain
TTITLE5=Do You Think About Me
TTITLE6=Honey Hush
TTITLE7=If it's Not One Thing it's Another
TTITLE8=Before You Accuse Me
TTITLE9=That's How I Feel
TTITLE10=Women Have a Way With a Fool
TTITLE11=I Guess I Showed Her
TTITLE12=I Keep on Holding On
TTITLE13=One More Song
EXTD=
EXTT0=
EXTT1=
EXTT2=
EXTT3=
EXTT4=
EXTT5=
EXTT6=
EXTT7=
EXTT8=
EXTT9=
EXTT10=
EXTT11=
EXTT12=
EXTT13=
PLAYORDER=
